<?xml version="1.0" encoding="utf-8"?>
<!-- Generator: Adobe Illustrator 19.0.0, SVG Export Plug-In . SVG Version: 6.00 Build 0)  -->
<svg version="1.1" id="Layer_1" xmlns="http://www.w3.org/2000/svg" xmlns:xlink="http://www.w3.org/1999/xlink" x="0px" y="0px"
	 viewBox="0 0 53.1 64" style="enable-background:new 0 0 53.1 64;" xml:space="preserve" width="53.1px" height="64px">
<style type="text/css">
	.st0{fill:#F06422;}
</style>
<g id="XMLID_179_">
	<path id="XMLID_181_" class="st0" d="M3.2,1.2V13h26.6L6.8,45c4.6-1.1,9.8-1.6,15.5-1.6l23.2-32.4V1.2H3.2z"/>
	<path id="XMLID_180_" class="st0" d="M50.1,52.5l-3.7,6.7l-2,3.6c-2.6-1.5-5.7-2.7-9.1-3.6c-3.9-0.9-8.4-1.4-13.5-1.4
		c-5.1,0-9.1,0.2-11.9,0.7c-1.9,0.3-3.2,0.6-3.8,0.7c-0.3,0.1-0.4,0.1-0.5,0.1l0-0.1L3.1,47.9c1-0.3,3.3-0.7,6.8-1.1
		c3.5-0.5,7.4-0.7,11.7-0.7C33.1,46,42.6,48.2,50.1,52.5z"/>
</g>
</svg>
