<?xml version="1.0" encoding="utf-8"?>
<!-- Generator: Adobe Illustrator 19.0.0, SVG Export Plug-In . SVG Version: 6.00 Build 0)  -->
<svg version="1.1" id="Layer_1" xmlns="http://www.w3.org/2000/svg" xmlns:xlink="http://www.w3.org/1999/xlink" x="0px" y="0px"
	 viewBox="0 0 182.4 38.4" width="182.4px" height="38.4px" style="enable-background:new 0 0 182.4 38.4;" xml:space="preserve">
<style type="text/css">
	.st0{fill:#F06422;}
</style>
<g id="XMLID_3_">
	<g id="XMLID_25_">
		<path id="XMLID_29_" class="st0" d="M1.8,2.1v6.6h14.9L3.8,26.6c2.6-0.6,5.5-0.9,8.7-0.9l13-18.1V2.1H1.8z"/>
		<path id="XMLID_27_" class="st0" d="M27.9,30.8l-2.1,3.8l-1.1,2c-1.5-0.9-3.2-1.5-5.1-2c-2.2-0.5-4.7-0.8-7.5-0.8
			c-2.9,0-5.1,0.1-6.6,0.4c-1.1,0.2-1.8,0.3-2.1,0.4c-0.2,0-0.2,0-0.3,0l0,0l-1.4-6.4c0.6-0.2,1.8-0.4,3.8-0.6
			c2-0.3,4.1-0.4,6.5-0.4C18.5,27.2,23.8,28.4,27.9,30.8z"/>
	</g>
	<path id="XMLID_21_" class="st0" d="M59.1,25.8l2.9-0.7V19c-3.9,1.1-7.6,1.7-11.2,1.7c-1.7,0-3.5-0.2-5.6-0.5l2.5-6.9l2.3,6.3
		c2.5,0,4.8-0.2,6.7-0.6l-6-16.9h-6L33.1,34.6h7l3.1-8.7c1.4,0.3,2.6,0.5,3.5,0.5c1,0.1,2.2,0.1,3.6,0.1h2.1l2.9,8.1h7L59.1,25.8z"
		/>
	<path id="XMLID_16_" class="st0" d="M92.3,2.1l-7.6,15.2L77.2,2.1h-6.7v32.4H77V16.5l4.9,9.9h5.6l5-9.9v18.1h6.6V2.1H92.3z"/>
	<path id="XMLID_12_" class="st0" d="M133.3,25.8l2.9-0.7V19c-3.9,1.1-7.6,1.7-11.2,1.7c-1.7,0-3.5-0.2-5.6-0.5l2.5-6.9l2.3,6.3
		c2.5,0,4.8-0.2,6.7-0.6l-6-16.9h-6l-11.6,32.4h7l3.1-8.7c1.4,0.3,2.6,0.5,3.6,0.5c1,0.1,2.2,0.1,3.6,0.1h2.1l2.9,8.1h7L133.3,25.8z
		"/>
	<path id="XMLID_7_" class="st0" d="M163.4,31.7c-1.3-1.9-2.2-3.8-2.8-5.8c-1.7,0.7-3.4,1.1-5.1,1.1c-0.7,0-1.2,0-1.4,0
		c0.7,2.8,1.8,5.4,3.3,7.7h8.6C164.9,33.7,164,32.7,163.4,31.7z M164.3,7.7c-1.2-1.9-2.7-3.3-4.4-4.3c-1.8-1-3.5-1.5-5.1-1.5h-11.1
		v32.7h6.5v-8.9l5.6,0c1.5,0,3.1-0.4,4.7-1.3c1.6-0.9,2.9-2.1,4-3.9c1.1-1.7,1.6-3.8,1.6-6.3C166.1,11.8,165.5,9.6,164.3,7.7z
		 M158.7,17.4c-0.5,0.7-1.1,1.2-1.7,1.4c-0.6,0.2-1,0.3-1.2,0.3h-5.6V8.4h4.5c0.5,0,1.2,0.2,1.9,0.6c0.8,0.4,1.4,1,2,1.9
		c0.6,0.9,0.8,2,0.8,3.3C159.5,15.6,159.2,16.7,158.7,17.4z"/>
	<path id="XMLID_4_" class="st0" d="M173.2,29v5.5h6.7V29H173.2z M173.2,1.6v5.8h0v20.1h6.6V7.3h0V1.6H173.2z"/>
</g>
</svg>
