<?xml version="1.0" encoding="utf-8"?>
<!-- Generator: Adobe Illustrator 19.0.0, SVG Export Plug-In . SVG Version: 6.00 Build 0)  -->
<svg version="1.1" id="Layer_1" xmlns="http://www.w3.org/2000/svg" xmlns:xlink="http://www.w3.org/1999/xlink" x="0px" y="0px"
	 viewBox="0 0 439 236" style="enable-background:new 0 0 439 236;" xml:space="preserve" class="yardad">
<style type="text/css">
	.st0{fill:#F26522;}
</style>
<g id="XMLID_175_">
	<g id="XMLID_203_">
		<path id="XMLID_204_" class="st0" d="M63.3,128.4l0.1,0.9h0.7l19.6-67h39.3L75.9,198.1c-3.6,8.7-8.3,15.9-14.1,21.6
			c-5.8,5.7-14.9,8.5-27.4,8.5c-3.2,0-5.8-0.2-7.9-0.6c-2-0.4-5.2-1.1-9.6-2.2l4.5-26.3c1,0.2,1.8,0.4,2.3,0.5
			c0.5,0.1,1.2,0.2,2,0.2c5.8,0,10.1-0.9,12.8-2.6c2.7-1.7,4.7-4.3,6-7.7l2.9-7.6L6.5,62.3h39.2L63.3,128.4z"/>
		<path id="XMLID_206_" class="st0" d="M199.2,180.4c-1.4-2.5-2.6-5.3-3.5-8.4c-1-3.1-1.7-6.4-2.2-9.8c-3.2,6.3-7.2,11.3-11.9,15
			c-4.7,3.7-10.8,5.6-18.4,5.6c-12.4,0-22-3.2-28.9-9.6c-6.9-6.4-10.3-15.1-10.3-26.1c0-11.7,4.4-20.8,13.2-27.1
			c8.8-6.4,22.2-9.6,40.1-9.6h15.2v-8.4c0-5-1.2-8.9-3.6-11.6c-2.4-2.7-6.1-4-11-4c-4.3,0-7.5,1-9.6,3c-2.1,2-3.1,5.1-3.1,9.3
			l-35.8-0.1l-0.2-0.7c-0.5-10.8,4-19.8,13.5-27c9.5-7.2,22-10.9,37.6-10.9c14.6,0,26.5,3.6,35.6,10.9c9.1,7.3,13.6,17.7,13.6,31.2
			v44.6c0,6.3,0.5,12.1,1.6,17.5c1.1,5.4,2.6,10.8,4.8,16.2L199.2,180.4z M173.2,156.4c4.5,0,8.5-1.1,12-3.2
			c3.5-2.1,5.9-4.6,7.3-7.5v-15.6h-14.9c-5.9,0-10.2,1.4-12.8,4.3c-2.6,2.8-3.9,6.4-3.9,10.8c0,3.4,1.1,6.1,3.4,8.1
			S169.5,156.4,173.2,156.4z"/>
		<path id="XMLID_209_" class="st0" d="M314.9,93.8l-12-0.1c-4.2,0-7.7,0.8-10.4,2.3c-2.7,1.6-4.7,3.8-6,6.6v77.9h-36.9V62.3h34.7
			l1.3,17.4c2.5-6.2,5.8-11,9.8-14.4c4.1-3.4,8.8-5.1,14.3-5.1c1.7,0,3.2,0.1,4.5,0.3c1.3,0.2,2.7,0.5,4.2,1L314.9,93.8z"/>
		<path id="XMLID_211_" class="st0" d="M321.4,121.6c0-18.4,4-33.3,12.1-44.6c8-11.3,19.4-16.9,34-16.9c5.5,0,10.4,1.3,14.8,3.8
			c4.4,2.5,8.4,6.1,11.9,10.8V10.1h36.9v170.4h-32.3l-2.5-14.4c-3.6,5.4-7.7,9.5-12.5,12.4c-4.8,2.9-10.2,4.3-16.4,4.3
			c-14.6,0-25.9-5.4-33.9-16.2c-8-10.8-12-25-12-42.7V121.6z M358.3,123.9c0,9.6,1.4,17.1,4.2,22.4c2.8,5.4,7.5,8,14.1,8
			c3.9,0,7.3-0.7,10.2-2.1s5.4-3.5,7.3-6.3V98.2c-1.9-3.1-4.3-5.5-7.2-7.2c-2.9-1.7-6.3-2.5-10-2.5c-6.6,0-11.3,3-14.2,9.1
			c-2.9,6-4.4,14.1-4.4,24V123.9z"/>
	</g>
	<g id="XMLID_17_">
		<path id="XMLID_63_" d="M16.6,16.1h4.1v14.2c0,2-0.6,3.7-1.9,4.9C17.6,36.4,16,37,14,37c-2.2,0-3.9-0.5-5.2-1.6S7,32.7,7,30.7
			l0-0.1h4c0,1.1,0.3,1.9,0.8,2.4c0.5,0.5,1.3,0.8,2.2,0.8c0.8,0,1.4-0.3,1.9-0.9s0.7-1.5,0.7-2.6V16.1z"/>
		<path id="XMLID_148_" d="M23.6,28.9c0-2.3,0.6-4.2,1.9-5.6c1.3-1.5,3-2.2,5.3-2.2c2.3,0,4,0.7,5.3,2.2s1.9,3.3,1.9,5.6v0.3
			c0,2.3-0.6,4.2-1.9,5.6c-1.3,1.4-3,2.2-5.3,2.2c-2.3,0-4-0.7-5.3-2.2c-1.3-1.4-1.9-3.3-1.9-5.6V28.9z M27.7,29.2
			c0,1.4,0.2,2.5,0.7,3.4s1.3,1.3,2.4,1.3c1.1,0,1.8-0.4,2.3-1.3c0.5-0.8,0.7-2,0.7-3.4v-0.3c0-1.4-0.2-2.5-0.8-3.3
			s-1.3-1.3-2.4-1.3c-1.1,0-1.8,0.4-2.3,1.3c-0.5,0.9-0.7,2-0.7,3.3V29.2z"/>
		<path id="XMLID_151_" d="M44.9,17.7h-4.1v-3.1h4.1V17.7z M44.9,36.7h-4.1V21.4h4.1V36.7z"/>
		<path id="XMLID_154_" d="M52.1,21.4l0.2,2.2c0.5-0.8,1.1-1.4,1.9-1.8s1.6-0.7,2.5-0.7c1.5,0,2.8,0.5,3.6,1.5s1.3,2.6,1.3,4.7v9.4
			h-4.1v-9.4c0-1.1-0.2-1.9-0.6-2.3c-0.4-0.5-1-0.7-1.7-0.7c-0.6,0-1.2,0.1-1.6,0.3c-0.5,0.2-0.9,0.5-1.2,1v11.1h-4.1V21.4H52.1z"/>
		<path id="XMLID_156_" d="M71.3,28.9c0-2.3,0.6-4.2,1.9-5.6c1.3-1.5,3-2.2,5.3-2.2c2.3,0,4,0.7,5.3,2.2s1.9,3.3,1.9,5.6v0.3
			c0,2.3-0.6,4.2-1.9,5.6c-1.3,1.4-3,2.2-5.3,2.2c-2.3,0-4-0.7-5.3-2.2c-1.3-1.4-1.9-3.3-1.9-5.6V28.9z M75.4,29.2
			c0,1.4,0.2,2.5,0.7,3.4s1.3,1.3,2.4,1.3c1.1,0,1.8-0.4,2.3-1.3c0.5-0.8,0.7-2,0.7-3.4v-0.3c0-1.4-0.2-2.5-0.8-3.3
			s-1.3-1.3-2.4-1.3c-1.1,0-1.8,0.4-2.3,1.3c-0.5,0.9-0.7,2-0.7,3.3V29.2z"/>
		<path id="XMLID_159_" d="M93.2,17.6v3.8h2.6v2.9h-2.6v7.8c0,0.6,0.1,1,0.4,1.3c0.3,0.3,0.6,0.4,1,0.4c0.2,0,0.4,0,0.6,0
			s0.3-0.1,0.6-0.1l0.3,3c-0.4,0.1-0.8,0.2-1.2,0.3C94.4,37,94,37,93.6,37c-1.4,0-2.5-0.4-3.3-1.2c-0.8-0.8-1.2-2-1.2-3.7v-7.8h-2.2
			v-2.9h2.2v-3.8H93.2z"/>
		<path id="XMLID_161_" d="M102.4,23.3c0.5-0.7,1.1-1.2,1.8-1.6s1.5-0.6,2.3-0.6c1.6,0,2.8,0.5,3.8,1.6c0.9,1.1,1.4,2.7,1.4,4.9v9.1
			h-4.1v-9.1c0-1.2-0.2-2-0.6-2.5c-0.4-0.5-1-0.7-1.7-0.7c-0.6,0-1.2,0.1-1.6,0.3c-0.5,0.2-0.8,0.5-1.1,0.9v11.2h-4.1V14.6h4.1V23.3
			z"/>
		<path id="XMLID_163_" d="M121.4,37c-2.3,0-4.1-0.7-5.4-2.1c-1.3-1.4-1.9-3.2-1.9-5.4v-0.6c0-2.3,0.6-4.2,1.9-5.6s3-2.2,5.1-2.2
			c2.1,0,3.6,0.6,4.7,1.9c1.1,1.3,1.6,3,1.6,5.1v2.1h-9.1l0,0.1c0.1,1,0.4,1.9,1,2.5c0.6,0.7,1.4,1,2.5,1c0.9,0,1.7-0.1,2.4-0.3
			c0.6-0.2,1.3-0.5,2-0.9l1.1,2.5c-0.6,0.5-1.4,0.9-2.5,1.3S122.6,37,121.4,37z M121.1,24.3c-0.8,0-1.5,0.3-1.9,0.9
			c-0.4,0.6-0.7,1.3-0.8,2.3l0,0.1h5v-0.3c0-0.9-0.2-1.6-0.6-2.1S121.9,24.3,121.1,24.3z"/>
		<path id="XMLID_166_" d="M138,24.9l-1.5,0c-0.6,0-1.1,0.1-1.5,0.4c-0.4,0.3-0.7,0.6-0.9,1.1v10.4h-4.1V21.4h3.8l0.2,2.3
			c0.4-0.8,0.8-1.4,1.4-1.9c0.6-0.4,1.2-0.7,2-0.7c0.2,0,0.4,0,0.6,0c0.2,0,0.4,0.1,0.5,0.1L138,24.9z"/>
		<path id="XMLID_168_" d="M153.7,33.8c0.7,0,1.3-0.2,1.7-0.6s0.6-1,0.6-1.7h3.8l0,0.1c0,1.5-0.5,2.8-1.7,3.9s-2.7,1.6-4.4,1.6
			c-2.3,0-4-0.7-5.3-2.2s-1.9-3.3-1.9-5.6v-0.4c0-2.2,0.6-4.1,1.8-5.6c1.2-1.5,3-2.2,5.2-2.2c1.9,0,3.4,0.5,4.5,1.6s1.7,2.5,1.7,4.2
			l0,0.1h-3.8c0-0.8-0.2-1.5-0.6-2c-0.4-0.5-1-0.8-1.7-0.8c-1.1,0-1.8,0.4-2.3,1.3c-0.4,0.9-0.7,1.9-0.7,3.3v0.4
			c0,1.4,0.2,2.5,0.7,3.3C151.9,33.4,152.6,33.8,153.7,33.8z"/>
		<path id="XMLID_170_" d="M161.6,28.9c0-2.3,0.6-4.2,1.9-5.6c1.3-1.5,3-2.2,5.3-2.2c2.3,0,4,0.7,5.3,2.2s1.9,3.3,1.9,5.6v0.3
			c0,2.3-0.6,4.2-1.9,5.6c-1.3,1.4-3,2.2-5.3,2.2c-2.3,0-4-0.7-5.3-2.2c-1.3-1.4-1.9-3.3-1.9-5.6V28.9z M165.8,29.2
			c0,1.4,0.2,2.5,0.7,3.4s1.3,1.3,2.4,1.3c1.1,0,1.8-0.4,2.3-1.3c0.5-0.8,0.7-2,0.7-3.4v-0.3c0-1.4-0.2-2.5-0.8-3.3
			s-1.3-1.3-2.4-1.3c-1.1,0-1.8,0.4-2.3,1.3c-0.5,0.9-0.7,2-0.7,3.3V29.2z"/>
		<path id="XMLID_173_" d="M178,28.9c0-2.3,0.6-4.2,1.9-5.6c1.3-1.5,3-2.2,5.3-2.2c2.3,0,4,0.7,5.3,2.2s1.9,3.3,1.9,5.6v0.3
			c0,2.3-0.6,4.2-1.9,5.6c-1.3,1.4-3,2.2-5.3,2.2c-2.3,0-4-0.7-5.3-2.2c-1.3-1.4-1.9-3.3-1.9-5.6V28.9z M182.1,29.2
			c0,1.4,0.2,2.5,0.7,3.4s1.3,1.3,2.4,1.3c1.1,0,1.8-0.4,2.3-1.3c0.5-0.8,0.7-2,0.7-3.4v-0.3c0-1.4-0.2-2.5-0.8-3.3
			s-1.3-1.3-2.4-1.3c-1.1,0-1.8,0.4-2.3,1.3c-0.5,0.9-0.7,2-0.7,3.3V29.2z"/>
		<path id="XMLID_178_" d="M199.4,36.7h-4.1V14.6h4.1V36.7z"/>
		<path id="XMLID_180_" d="M211.1,36.7V24.3h-2.3v-2.9h2.3v-1.7c0-1.7,0.5-3,1.5-4s2.4-1.4,4.2-1.4c0.3,0,0.7,0,1.1,0.1
			c0.4,0.1,0.8,0.1,1.2,0.2l-0.4,3.1c-0.2,0-0.4-0.1-0.7-0.1c-0.2,0-0.5,0-0.7,0c-0.7,0-1.2,0.2-1.5,0.6c-0.3,0.4-0.5,0.9-0.5,1.6
			v1.7h2.9v2.9h-2.9v12.4H211.1z"/>
		<path id="XMLID_182_" d="M219.5,28.9c0-2.3,0.6-4.2,1.9-5.6c1.3-1.5,3-2.2,5.3-2.2c2.3,0,4,0.7,5.3,2.2s1.9,3.3,1.9,5.6v0.3
			c0,2.3-0.6,4.2-1.9,5.6c-1.3,1.4-3,2.2-5.3,2.2c-2.3,0-4-0.7-5.3-2.2c-1.3-1.4-1.9-3.3-1.9-5.6V28.9z M223.6,29.2
			c0,1.4,0.2,2.5,0.7,3.4s1.3,1.3,2.4,1.3c1.1,0,1.8-0.4,2.3-1.3c0.5-0.8,0.7-2,0.7-3.4v-0.3c0-1.4-0.2-2.5-0.8-3.3
			s-1.3-1.3-2.4-1.3c-1.1,0-1.8,0.4-2.3,1.3c-0.5,0.9-0.7,2-0.7,3.3V29.2z"/>
		<path id="XMLID_185_" d="M240.8,36.7h-4.1V14.6h4.1V36.7z"/>
		<path id="XMLID_187_" d="M249.4,30.3h-1v6.4h-4.1V14.6h4.1v12.5h0.9l3.7-5.8h4.8l-5,7l5.7,8.3h-4.8L249.4,30.3z"/>
		<path id="XMLID_189_" d="M268,32.4c0-0.5-0.2-0.8-0.7-1.2c-0.4-0.3-1.3-0.6-2.4-0.9c-1.8-0.4-3.2-0.9-4.1-1.6
			c-0.9-0.7-1.4-1.7-1.4-3c0-1.3,0.6-2.4,1.7-3.4s2.6-1.4,4.4-1.4c1.9,0,3.5,0.5,4.7,1.4c1.2,0.9,1.7,2.1,1.7,3.5l0,0.1h-4
			c0-0.6-0.2-1.1-0.6-1.5s-1-0.6-1.7-0.6c-0.7,0-1.2,0.2-1.6,0.5s-0.6,0.7-0.6,1.2c0,0.5,0.2,0.9,0.6,1.2c0.4,0.3,1.2,0.6,2.4,0.8
			c1.9,0.4,3.3,0.9,4.2,1.7c0.9,0.7,1.4,1.7,1.4,3c0,1.4-0.6,2.5-1.8,3.4s-2.7,1.3-4.7,1.3c-2,0-3.7-0.5-4.8-1.5
			c-1.2-1-1.7-2.2-1.7-3.5l0-0.1h3.8c0,0.8,0.3,1.4,0.8,1.8s1.2,0.6,2,0.6c0.8,0,1.3-0.2,1.7-0.5C267.8,33.4,268,33,268,32.4z"/>
		<path id="XMLID_191_" d="M291,36.7c-0.2-0.3-0.3-0.7-0.4-1.1s-0.2-0.8-0.2-1.2c-0.4,0.7-1,1.4-1.7,1.9c-0.7,0.5-1.5,0.7-2.5,0.7
			c-1.6,0-2.8-0.4-3.7-1.2s-1.3-2-1.3-3.4c0-1.5,0.6-2.7,1.7-3.5c1.2-0.8,2.8-1.2,5.1-1.2h2.3v-1.2c0-0.7-0.2-1.3-0.6-1.7
			c-0.4-0.4-1-0.6-1.7-0.6c-0.7,0-1.2,0.2-1.6,0.5c-0.4,0.3-0.5,0.8-0.5,1.3h-4l0-0.1c-0.1-1.3,0.5-2.4,1.7-3.3
			c1.2-0.9,2.8-1.4,4.7-1.4c1.8,0,3.3,0.5,4.5,1.4s1.7,2.3,1.7,4v6.3c0,0.7,0.1,1.4,0.2,2c0.1,0.6,0.3,1.3,0.5,1.9H291z M287.2,33.9
			c0.7,0,1.4-0.2,1.9-0.5c0.6-0.4,1-0.8,1.2-1.2V30h-2.3c-0.9,0-1.5,0.2-2,0.7c-0.4,0.4-0.7,1-0.7,1.6c0,0.5,0.2,0.9,0.5,1.2
			C286.1,33.8,286.6,33.9,287.2,33.9z"/>
		<path id="XMLID_194_" d="M302.5,17.6v3.8h2.6v2.9h-2.6v7.8c0,0.6,0.1,1,0.4,1.3s0.6,0.4,1,0.4c0.2,0,0.4,0,0.6,0
			c0.2,0,0.3-0.1,0.6-0.1l0.3,3c-0.4,0.1-0.8,0.2-1.2,0.3c-0.4,0.1-0.8,0.1-1.3,0.1c-1.4,0-2.5-0.4-3.3-1.2s-1.2-2-1.2-3.7v-7.8
			h-2.2v-2.9h2.2v-3.8H302.5z"/>
		<path id="XMLID_196_" d="M319.8,17.6v3.8h2.6v2.9h-2.6v7.8c0,0.6,0.1,1,0.4,1.3c0.3,0.3,0.6,0.4,1,0.4c0.2,0,0.4,0,0.6,0
			c0.2,0,0.3-0.1,0.6-0.1l0.3,3c-0.4,0.1-0.8,0.2-1.2,0.3c-0.4,0.1-0.8,0.1-1.3,0.1c-1.4,0-2.5-0.4-3.3-1.2c-0.8-0.8-1.2-2-1.2-3.7
			v-7.8h-2.2v-2.9h2.2v-3.8H319.8z"/>
		<path id="XMLID_198_" d="M328.9,23.3c0.5-0.7,1.1-1.2,1.8-1.6c0.7-0.4,1.5-0.6,2.3-0.6c1.6,0,2.8,0.5,3.8,1.6
			c0.9,1.1,1.4,2.7,1.4,4.9v9.1H334v-9.1c0-1.2-0.2-2-0.6-2.5c-0.4-0.5-1-0.7-1.7-0.7c-0.6,0-1.2,0.1-1.6,0.3
			c-0.5,0.2-0.8,0.5-1.1,0.9v11.2h-4.1V14.6h4.1V23.3z"/>
		<path id="XMLID_200_" d="M347.9,37c-2.3,0-4.1-0.7-5.4-2.1c-1.3-1.4-1.9-3.2-1.9-5.4v-0.6c0-2.3,0.6-4.2,1.9-5.6s3-2.2,5.1-2.2
			c2.1,0,3.6,0.6,4.7,1.9c1.1,1.3,1.6,3,1.6,5.1v2.1h-9.1l0,0.1c0.1,1,0.4,1.9,1,2.5s1.4,1,2.5,1c0.9,0,1.7-0.1,2.4-0.3
			c0.6-0.2,1.3-0.5,2-0.9l1.1,2.5c-0.6,0.5-1.4,0.9-2.5,1.3S349.2,37,347.9,37z M347.7,24.3c-0.8,0-1.5,0.3-1.9,0.9
			s-0.7,1.3-0.8,2.3l0,0.1h5v-0.3c0-0.9-0.2-1.6-0.6-2.1S348.5,24.3,347.7,24.3z"/>
	</g>
</g>
</svg>
