<?xml version="1.0" encoding="utf-8"?>
<!-- Generator: Adobe Illustrator 19.0.0, SVG Export Plug-In . SVG Version: 6.00 Build 0)  -->
<svg version="1.1" id="Layer_1" xmlns="http://www.w3.org/2000/svg" xmlns:xlink="http://www.w3.org/1999/xlink" x="0px" y="0px"
	 viewBox="0 0 253 67" style="enable-background:new 0 0 253 67;" xml:space="preserve">
<style type="text/css">
	.st0{fill:#FF0000;}
	.st1{fill:#FFFFFF;}
</style>
<g>
	<g>
		<path class="st0" d="M79.5,14.3c-0.9-3.4-3.6-6.1-7-7c-6.2-1.7-31.2-1.7-31.2-1.7s-24.9,0-31.2,1.7c-3.4,0.9-6.1,3.6-7,7
			c-1.7,6.2-1.7,19.2-1.7,19.2s0,13,1.7,19.2c0.9,3.4,3.6,6.1,7,7c6.2,1.7,31.2,1.7,31.2,1.7s24.9,0,31.2-1.7c3.4-0.9,6.1-3.6,7-7
			c1.7-6.2,1.7-19.2,1.7-19.2S81.2,20.5,79.5,14.3z"/>
		<polygon class="st1" points="33.4,45.4 54.1,33.5 33.4,21.5 		"/>
	</g>
	<g>
		<g>
			<path class="st1" d="M117.2,56.4c-1.6-1.1-2.7-2.7-3.4-5c-0.7-2.2-1-5.2-1-9v-5.1c0-3.8,0.4-6.8,1.1-9.1c0.8-2.3,1.9-3.9,3.6-5
				c1.6-1,3.7-1.6,6.4-1.6c2.6,0,4.7,0.5,6.2,1.6c1.6,1.1,2.7,2.7,3.4,5c0.7,2.3,1.1,5.3,1.1,9v5.1c0,3.7-0.4,6.7-1.1,9
				c-0.7,2.3-1.8,3.9-3.4,5c-1.6,1-3.7,1.6-6.4,1.6C120.9,58,118.8,57.4,117.2,56.4z M126,50.9c0.4-1.1,0.7-3,0.7-5.6V34.4
				c0-2.5-0.2-4.3-0.7-5.5c-0.4-1.2-1.2-1.7-2.3-1.7c-1.1,0-1.8,0.6-2.3,1.7c-0.4,1.2-0.7,3-0.7,5.5v10.9c0,2.6,0.2,4.4,0.6,5.6
				c0.4,1.1,1.2,1.7,2.3,1.7C124.8,52.6,125.6,52,126,50.9z"/>
			<path class="st1" d="M238.3,42.5v1.8c0,2.2,0.1,3.9,0.2,5c0.1,1.1,0.4,1.9,0.8,2.5c0.4,0.5,1.1,0.8,1.9,0.8c1.2,0,2-0.5,2.4-1.4
				c0.4-0.9,0.7-2.4,0.7-4.6l6.8,0.4c0,0.3,0.1,0.7,0.1,1.3c0,3.2-0.9,5.6-2.7,7.2c-1.8,1.6-4.3,2.4-7.5,2.4c-3.9,0-6.6-1.2-8.2-3.6
				c-1.6-2.4-2.3-6.2-2.3-11.3v-6.1c0-5.2,0.8-9.1,2.4-11.5c1.6-2.4,4.4-3.6,8.3-3.6c2.7,0,4.8,0.5,6.2,1.5c1.4,1,2.5,2.5,3.1,4.6
				c0.6,2.1,0.9,5,0.9,8.7v6H238.3z M239.3,27.8c-0.4,0.5-0.7,1.3-0.8,2.4c-0.1,1.1-0.2,2.8-0.2,5.1v2.5h5.8v-2.5
				c0-2.2-0.1-3.9-0.2-5.1c-0.2-1.2-0.4-2-0.8-2.5c-0.4-0.5-1-0.7-1.9-0.7C240.3,27.1,239.7,27.3,239.3,27.8z"/>
			<path class="st1" d="M98,41.9l-9-32.3h7.8l3.1,14.7c0.8,3.6,1.4,6.7,1.8,9.2h0.2c0.3-1.8,0.9-4.9,1.8-9.2L107,9.5h7.8l-9.1,32.3
				v15.5H98V41.9z"/>
			<path class="st1" d="M160,22.4v35h-6.2l-0.7-4.3H153c-1.7,3.2-4.2,4.8-7.5,4.8c-2.3,0-4-0.8-5.1-2.3c-1.1-1.5-1.7-3.9-1.7-7.1
				V22.4h7.9v25.7c0,1.6,0.2,2.7,0.5,3.3c0.3,0.7,0.9,1,1.7,1c0.7,0,1.3-0.2,2-0.6c0.6-0.4,1.1-0.9,1.4-1.6V22.4H160z"/>
			<path class="st1" d="M200.4,22.4v35h-6.2l-0.7-4.3h-0.2c-1.7,3.2-4.2,4.8-7.5,4.8c-2.3,0-4-0.8-5.1-2.3c-1.1-1.5-1.7-3.9-1.7-7.1
				V22.4h7.9v25.7c0,1.6,0.2,2.7,0.5,3.3c0.3,0.7,0.9,1,1.7,1c0.7,0,1.3-0.2,2-0.6c0.6-0.4,1.1-0.9,1.4-1.6V22.4H200.4z"/>
			<path class="st1" d="M181.4,15.9h-7.8v41.5h-7.7V15.9h-7.8V9.5h23.3V15.9z"/>
			<path class="st1" d="M226.4,28c-0.5-2.2-1.2-3.8-2.3-4.8c-1.1-1-2.5-1.5-4.4-1.5c-1.4,0-2.8,0.4-4,1.2c-1.3,0.8-2.2,1.9-2.9,3.2
				h-0.1l0-18.4h-7.6v49.6h6.5l0.8-3.3h0.2c0.6,1.2,1.5,2.1,2.7,2.8c1.2,0.7,2.6,1,4,1c2.7,0,4.6-1.2,5.9-3.7
				c1.3-2.5,1.9-6.3,1.9-11.5v-5.5C227.1,33.3,226.9,30.2,226.4,28z M219.2,42.3c0,2.5-0.1,4.5-0.3,6c-0.2,1.4-0.6,2.5-1.1,3.1
				c-0.5,0.6-1.2,0.9-2,0.9c-0.6,0-1.2-0.2-1.8-0.5c-0.6-0.3-1-0.8-1.3-1.4V30.6c0.3-0.9,0.7-1.7,1.4-2.3c0.6-0.6,1.3-0.9,2.1-0.9
				c0.8,0,1.4,0.3,1.9,0.9c0.4,0.6,0.7,1.7,0.9,3.2c0.2,1.5,0.3,3.6,0.3,6.3V42.3z"/>
		</g>
	</g>
</g>
</svg>
